<?xml version="1.0" encoding="UTF-8"?>
<svg width="24px" height="9px" viewBox="0 0 16 14" version="1.1" xmlns="http://www.w3.org/2000/svg" xmlns:xlink="http://www.w3.org/1999/xlink">
    <title>A06FE3E7-20E0-453C-AD36-FADA4575822D</title>
    <defs>
        <path d="M15,6 L3.135,6 L6.768,1.64 C7.122,1.216 7.064,0.585 6.64,0.232 C6.215,-0.122 5.585,-0.064 5.232,0.36 L0.232,6.36 C0.193,6.407 0.173,6.462 0.144,6.514 C0.12,6.556 0.091,6.592 0.073,6.638 C0.028,6.753 0.001,6.874 0.001,6.996 C0.001,6.997 0,6.999 0,7 C0,7.001 0.001,7.003 0.001,7.004 C0.001,7.126 0.028,7.247 0.073,7.362 C0.091,7.408 0.12,7.444 0.144,7.486 C0.173,7.538 0.193,7.593 0.232,7.64 L5.232,13.64 C5.43,13.877 5.714,14 6,14 C6.226,14 6.453,13.924 6.64,13.768 C7.064,13.415 7.122,12.784 6.768,12.36 L3.135,8 L15,8 C15.552,8 16,7.552 16,7 C16,6.448 15.552,6 15,6" id="path-1"></path>
    </defs>
    <g id="Page-1" stroke="none" stroke-width="1" fill="none" fill-rule="evenodd">
        <g id="Style-guide-/-Icons-" transform="translate(-446.000000, -268.000000)">
            <g id="27)-Icon/arrow-left" transform="translate(446.000000, 268.000000)">
                <mask id="mask-2" fill="white">
                    <use xlink:href="#path-1"></use>
                </mask>
                <use id="🎨-Icon-Сolor" fill="#0090FF" xlink:href="#path-1"></use>
            </g>
        </g>
    </g>
</svg>