<?xml version="1.0" encoding="UTF-8"?>
<svg width="25px" height="18px" viewBox="0 0 18 12" version="1.1" xmlns="http://www.w3.org/2000/svg" xmlns:xlink="http://www.w3.org/1999/xlink">
    <title>61E71D54-8D90-43FA-A505-5A6A352935D8</title>
    <defs>
        <path d="M17.0513,10 C17.5733,10 18.0003,10.427 18.0003,10.949 L18.0003,10.949 L18.0003,11.051 C18.0003,11.573 17.5733,12 17.0513,12 L17.0513,12 L0.9483,12 C0.4263,12 0.0003,11.573 0.0003,11.051 L0.0003,11.051 L0.0003,10.949 C0.0003,10.427 0.4263,10 0.9483,10 L0.9483,10 Z M17.0513,5 C17.5733,5 18.0003,5.427 18.0003,5.949 L18.0003,5.949 L18.0003,6.051 C18.0003,6.573 17.5733,7 17.0513,7 L17.0513,7 L0.9483,7 C0.4263,7 0.0003,6.573 0.0003,6.051 L0.0003,6.051 L0.0003,5.949 C0.0003,5.427 0.4263,5 0.9483,5 L0.9483,5 Z M17.0513,0 C17.5733,0 18.0003,0.427 18.0003,0.949 L18.0003,0.949 L18.0003,1.051 C18.0003,1.573 17.5733,2 17.0513,2 L17.0513,2 L0.9483,2 C0.4263,2 0.0003,1.573 0.0003,1.051 L0.0003,1.051 L0.0003,0.949 C0.0003,0.427 0.4263,0 0.9483,0 L0.9483,0 Z" id="path-1"></path>
    </defs>
    <g id="Page-1" stroke="none" stroke-width="1" fill="none" fill-rule="evenodd">
        <g id="Style-guide-/-Icons-" transform="translate(-541.000000, -624.000000)">
            <g id="27)-Icon/menu" transform="translate(541.000000, 624.000000)">
                <mask id="mask-2" fill="white">
                    <use xlink:href="#path-1"></use>
                </mask>
                <use id="🎨-Icon-Сolor" fill="#222B45" xlink:href="#path-1"></use>
            </g>
        </g>
    </g>
</svg>