<?xml version="1.0" encoding="UTF-8"?>
<svg width="18px" height="22px" viewBox="0 0 14 18" version="1.1" xmlns="http://www.w3.org/2000/svg" xmlns:xlink="http://www.w3.org/1999/xlink">
    <title>1FD9B913-5CFD-4F20-B84E-EB8170B876F1</title>
    <defs>
        <path d="M7,10 C10.859,10 14,13.14 14,17 C14,17.552 13.553,18 13,18 L13,18 L1,18 C0.447,18 0,17.552 0,17 C0,13.14 3.141,10 7,10 Z M7,0 C9.206,0 11,1.794 11,4 C11,6.206 9.206,8 7,8 C4.794,8 3,6.206 3,4 C3,1.794 4.794,0 7,0 Z" id="path-1"></path>
    </defs>
    <g id="Page-1" stroke="none" stroke-width="1" fill="none" fill-rule="evenodd">
        <g id="Style-guide-/-Icons-" transform="translate(-927.000000, -733.000000)">
            <g id="27)-Icon/alert-circle-fill" transform="translate(927.000000, 733.000000)">
                <mask id="mask-2" fill="white">
                    <use xlink:href="#path-1"></use>
                </mask>
                <use id="🎨-Icon-Сolor" fill="#0090FF" xlink:href="#path-1"></use>
            </g>
        </g>
    </g>
</svg>